<svg id="レイヤー_1" data-name="レイヤー 1" xmlns="http://www.w3.org/2000/svg" viewBox="0 0 228.23 134.89"><defs><style>.cls-1,.cls-2,.cls-3{fill:none;stroke:#fff;stroke-miterlimit:10;}.cls-1{stroke-width:10px;}.cls-2{stroke-width:8px;}.cls-3{stroke-width:6px;}</style></defs><path class="cls-1" d="M94,128c1-3.8,67.3-8.29,69-7,2.59,2,3.87,4.16,8,15,1.3,3.41,3.26,8.25,6,14a141.2,141.2,0,0,0,21,16,142.52,142.52,0,0,0,36,16l45,9a44.36,44.36,0,0,1,9,6,44.86,44.86,0,0,1,8,9c2.4,2.84,10.24,12.62,7,19-1.75,3.44-6,4.53-8,5a504.76,504.76,0,0,1-81,12c-4.54.23,1.72,1.49-54.93,3.36a378,378,0,0,1-39.89-.45c-10.36-.82-19-2.37-24.2-5a19,19,0,0,1-6-4.9,11,11,0,0,1-3-8c.16-3.41-.17-5.72,0-8.27.14-1.63.07-5.66,0-13.73-.2-12.91-.71-16.15-.31-25.73.06-1.32.16-2.66.31-4.27.71-7.42,1.6-9.58,2.93-16,.51-2.49.8-3.91,2.07-12,.56-3.54,1-6.39,1.88-12.07C93.6,130.43,94,128.18,94,128Z" transform="translate(-80.54 -115.77)"/><path class="cls-2" d="M155,175a74.56,74.56,0,0,0,17,19c43.07,33.86,109.46,5.86,116,3" transform="translate(-80.54 -115.77)"/><line class="cls-3" x1="120.78" y1="52.23" x2="106.46" y2="62.23"/><line class="cls-3" x1="134.82" y1="59.52" x2="120.5" y2="69.52"/><line class="cls-3" x1="151.82" y1="64.52" x2="137.5" y2="74.52"/><path class="cls-2" d="M298,214a411.24,411.24,0,0,1-109,14A412,412,0,0,1,86,214" transform="translate(-80.54 -115.77)"/><line class="cls-2" x1="10.46" y1="33.23" x2="87.46" y2="14.23"/><path class="cls-2" d="M184,152c-8.27,13.37-18.18,18-22.43,19.63-15.27,5.84-31.32.93-38.07-1.13-7.36-2.25-12.94-5.28-25.69-8-4.72-1-8.66-1.62-11.31-2" transform="translate(-80.54 -115.77)"/><path class="cls-2" d="M172.3,139.31,133.1,165a65.4,65.4,0,0,1-9.6,5.47" transform="translate(-80.54 -115.77)"/><polyline class="cls-2" points="5.46 69.22 34.25 81.27 48.46 108.22"/></svg>