<svg xmlns="http://www.w3.org/2000/svg" width="50" height="50" viewBox="0 0 50 50">
  <g id="グループ_11578" data-name="グループ 11578" transform="translate(-0.414)">
    <rect id="長方形_25222" data-name="長方形 25222" width="50" height="50" rx="8" transform="translate(0.414)" fill="#fff"/>
    <path id="パス_51033" data-name="パス 51033" d="M4966.4,92.977a12.459,12.459,0,0,1-2.326,1.072,12.291,12.291,0,0,1-1.583.424,6.155,6.155,0,0,0-10.646,4.208,6.33,6.33,0,0,0,.157,1.405,17.7,17.7,0,0,1-1.876-.2,17.5,17.5,0,0,1-10.811-6.235,6.158,6.158,0,0,0,1.908,8.216,6.1,6.1,0,0,1-2.789-.771v.079a6.155,6.155,0,0,0,4.935,6.035,6.164,6.164,0,0,1-1.619.218,6.081,6.081,0,0,1-1.158-.113,6.163,6.163,0,0,0,5.748,4.277,12.339,12.339,0,0,1-7.645,2.631,12.473,12.473,0,0,1-1.468-.086,17.416,17.416,0,0,0,9.437,2.767c11.322,0,17.512-9.381,17.512-17.514,0-.266,0-.532-.019-.795a12.5,12.5,0,0,0,3.07-3.187,12.329,12.329,0,0,1-3.533.968,6.194,6.194,0,0,0,2.707-3.4Z" transform="translate(-4926.815 -79.718)" fill="#00acee"/>
  </g>
</svg>
